<?xml version="1.0" encoding="utf-8"?>
<!-- Generator: Adobe Illustrator 16.0.3, SVG Export Plug-In . SVG Version: 6.00 Build 0)  -->
<!DOCTYPE svg PUBLIC "-//W3C//DTD SVG 1.1//EN" "http://www.w3.org/Graphics/SVG/1.1/DTD/svg11.dtd">
<svg version="1.1" id="Capa_1" xmlns="http://www.w3.org/2000/svg" xmlns:xlink="http://www.w3.org/1999/xlink" x="0px" y="0px"
	 width="231.613px" height="137.806px" viewBox="0 0 231.613 137.806" enable-background="new 0 0 231.613 137.806"
	 xml:space="preserve">
<g>
	<polygon fill="#FFFFFF" points="67.072,0 0,67.072 0,137.806 164.541,137.806 231.613,70.733 231.613,0 	"/>
	<g>
		<path fill="#FF5B5B" d="M92.08,95.984c-3.788,0-7.096-0.751-9.921-2.245c-2.825-1.496-5.019-3.653-6.58-6.482
			c-1.561-2.824-2.344-6.196-2.344-10.117V59.591c0-1-0.231-1.878-0.697-2.643s-1.098-1.379-1.895-1.847
			c-0.798-0.462-1.662-0.695-2.591-0.695c-0.932,0-1.798,0.233-2.594,0.695c-0.797,0.468-1.427,1.082-1.895,1.847
			c-0.464,0.765-0.697,1.643-0.697,2.643v35.195H49.206V61.585c0-4.321,0.85-7.86,2.542-10.62c1.694-2.754,3.973-4.819,6.832-6.182
			c2.86-1.363,6.017-2.045,9.473-2.045c3.451,0,6.592,0.682,9.417,2.045c2.829,1.362,5.104,3.428,6.833,6.182
			c1.73,2.76,2.592,6.299,2.592,10.62v17.546c0,0.936,0.23,1.794,0.701,2.594c0.464,0.797,1.098,1.433,1.895,1.895
			c0.797,0.464,1.658,0.695,2.59,0.695c1,0,1.878-0.231,2.643-0.695c0.765-0.462,1.381-1.098,1.847-1.895
			c0.462-0.8,0.693-1.658,0.693-2.594V61.585c0-4.321,0.864-7.86,2.596-10.62c1.726-2.754,4.021-4.819,6.879-6.182
			c2.859-1.363,5.982-2.045,9.372-2.045c3.455,0,6.615,0.682,9.473,2.045c2.855,1.362,5.136,3.428,6.828,6.182
			c1.697,2.76,2.542,6.299,2.542,10.62v33.201h-13.657V59.591c0-1-0.23-1.878-0.698-2.643c-0.465-0.765-1.083-1.379-1.848-1.847
			c-0.764-0.462-1.643-0.695-2.64-0.695c-0.931,0-1.795,0.233-2.592,0.695c-0.798,0.468-1.429,1.082-1.894,1.847
			c-0.468,0.765-0.699,1.643-0.699,2.643V77.14c0,3.921-0.783,7.293-2.341,10.117c-1.565,2.829-3.76,4.986-6.58,6.482
			C99.175,95.233,95.868,95.984,92.08,95.984z"/>
		<path fill="#FF5B5B" d="M147.414,94.786V58.395c0-4.52,1.282-8.06,3.842-10.62c2.558-2.558,6.097-3.838,10.62-3.838h20.037v11.666
			h-17.649c-0.862,0-1.611,0.296-2.239,0.895c-0.636,0.6-0.947,1.364-0.947,2.296v35.993H147.414z"/>
	</g>
</g>
</svg>
