<svg width="104" height="20" viewBox="0 0 104 20" fill="none" xmlns="http://www.w3.org/2000/svg">
    <g clip-path="url(#clip0_1327_9581)">
        <path d="M55.4628 2.66119C51.239 2.55563 48.8707 6.32132 48.9409 10.035C48.967 19.8327 61.8386 19.728 61.8524 9.95667C61.899 6.3877 59.6156 2.55963 55.4636 2.66119M55.5526 0.0630266C66.6273 -0.410384 69.6364 14.59 60.2214 18.9107C53.4464 22.0382 44.7473 18.1078 44.9832 10.1534C44.8257 4.20857 49.6691 -0.0617235 55.5518 0.0622269M103.861 10.6244H88.8853C88.8176 17.7831 97.0718 18.2454 102.102 16.2669L102.806 18.7484C98.658 20.4669 91.1556 20.6596 87.9686 17.2985C83.6125 13.2969 84.4811 4.44527 89.8331 1.44008C97.3959 -2.53753 105.138 2.21257 103.861 10.6244ZM88.9302 8.14619H100.255C100.287 0.417285 89.7001 0.837117 88.9302 8.14619ZM66.5253 19.5344C66.4714 15.7336 66.6763 4.02944 66.3498 0.456469H69.7793L69.9989 3.60561C72.0675 0.50365 76.6473 -0.853407 80.4026 0.713166C83.3423 1.99505 84.6362 4.59801 84.6656 8.17898V19.5344H80.7944V8.53564C80.8042 5.3785 79.4556 2.91149 75.8595 2.89629C73.226 2.90189 70.9238 4.72996 70.4609 7.19457C70.3173 7.05543 70.4275 19.2561 70.3948 19.5352H66.5253V19.5344Z" fill="#00A3FD"/>
        <path d="M14.5077 16.9908C9.63975 18 3.69666 16.7764 3.70483 10.6349H18.7136C19.9969 2.20228 12.2317 -2.55662 4.6567 1.42978C-0.709223 4.44058 -1.58028 13.3138 2.78806 17.3234C5.98328 20.6917 13.5011 20.4982 17.6572 18.7756L16.9519 16.2886C16.2621 16.5717 15.4481 16.806 14.5085 16.99L14.5077 16.9908ZM4.54894 5.62171C5.89267 2.58772 10.4602 1.58572 13.0619 3.50655C14.5379 4.59092 15.1428 6.51335 15.0987 8.1487H3.74973C3.84687 7.32023 4.11382 6.47817 4.54894 5.62171Z" fill="#00A3FD"/>
        <path d="M34.3213 14.9806C34.0054 10.8182 35.6903 3.80745 31.2101 1.22369C28.1741 -0.677954 22.3339 -0.0925881 19.1395 1.70589L20.0211 4.03696C22.3143 2.65751 26.5953 1.95219 28.8296 3.39082C30.237 4.32644 30.5464 5.97059 30.4852 7.39881C24.1739 7.54756 18.0953 8.35763 17.6406 14.5096C17.7174 17.8882 20.4424 19.9914 24.169 19.9994C26.7945 19.9914 29.2288 18.9886 30.7056 17.1581H30.8387L31.1465 19.5643H34.6299C34.3915 18.1289 34.3205 16.5128 34.3205 14.9806H34.3213ZM30.5742 13.1229C30.4893 15.7467 27.8916 17.4404 25.1413 17.4356C21.5542 17.6179 20.2375 13.3572 22.9257 11.3268C24.9389 9.90741 28.0304 9.77307 30.5742 9.80425V13.1229Z" fill="#00A3FD"/>
        <path d="M46.1687 0.074947C43.2951 -0.176952 40.6672 1.56315 39.6631 4.23408H39.5317L39.3554 0.445199H35.9609C36.2785 4.42681 36.0883 15.3904 36.1373 19.5655H40.0174C40.064 18.4132 39.8893 8.61633 40.1489 7.75028C40.6909 4.63792 43.5596 2.82665 46.6822 3.40402V0.128526L46.1695 0.074947H46.1687Z" fill="#00A3FD"/>
    </g>
    <defs>
        <clipPath id="clip0_1327_9581">
            <rect width="104" height="20" fill="white"/>
        </clipPath>
    </defs>
</svg>
